# Blender v2.93.2 OBJ File: ''
# www.blender.org
mtllib left_gear.mtl
o left_gear
v 0.012325 -0.001256 0.003175
v 0.012325 -0.001256 -0.003175
v 0.011701 0.004071 0.003175
v 0.011701 0.004071 -0.003175
v 0.008884 0.008634 0.003175
v 0.008884 0.008634 -0.003175
v 0.004403 0.011580 0.003175
v 0.004403 0.011580 -0.003175
v -0.000903 0.012356 0.003175
v -0.000903 0.012356 -0.003175
v -0.006040 0.010816 0.003175
v -0.006040 0.010816 -0.003175
v 0.001320 0.000762 -0.003175
v 0.001524 -0.000000 -0.003175
v 0.007929 -0.002661 -0.003175
v 0.001320 -0.000762 -0.003175
v 0.000762 -0.001320 -0.003175
v 0.005015 -0.003556 -0.003175
v 0.000000 -0.001524 -0.003175
v -0.021588 -0.003556 -0.003175
v -0.000762 -0.001320 -0.003175
v -0.001320 -0.000762 -0.003175
v -0.020986 -0.001045 -0.003175
v -0.020545 -0.000603 -0.003175
v 0.000762 0.001320 -0.003175
v 0.000000 0.001524 -0.003175
v -0.003015 0.003556 -0.003175
v -0.000762 0.001320 -0.003175
v -0.001320 0.000762 -0.003175
v -0.020545 0.000603 -0.003175
v -0.001524 -0.000000 -0.003175
v -0.020383 -0.000000 -0.003175
v -0.020986 0.001045 -0.003175
v -0.021590 0.003556 -0.003175
v -0.021590 0.001206 -0.003175
v -0.023133 0.003204 -0.003175
v -0.024370 0.002217 -0.003175
v -0.022193 0.001045 -0.003175
v -0.025057 0.000790 -0.003175
v -0.022635 0.000603 -0.003175
v -0.022796 -0.000000 -0.003175
v -0.025056 -0.000792 -0.003175
v -0.022635 -0.000603 -0.003175
v -0.022193 -0.001045 -0.003175
v -0.024369 -0.002218 -0.003175
v -0.021590 -0.001206 -0.003175
v -0.023131 -0.003205 -0.003175
v 0.007929 -0.002661 0.003175
v 0.002880 -0.001616 0.003175
v 0.002880 -0.001616 0.006350
v 0.001807 -0.002764 0.003175
v 0.001807 -0.002764 0.006350
v 0.000325 -0.003286 0.003175
v 0.000325 -0.003286 0.006350
v -0.001231 -0.003064 0.003175
v -0.001231 -0.003064 0.006350
v -0.002508 -0.002148 0.003175
v -0.002508 -0.002148 0.006350
v -0.003217 -0.000746 0.003175
v -0.003217 -0.000746 0.006350
v -0.003197 0.000825 0.003175
v -0.003197 0.000825 0.006350
v -0.002454 0.002210 0.003175
v -0.002454 0.002210 0.006350
v -0.003015 0.003556 0.003175
v -0.004682 0.007557 0.006350
v -0.004682 0.007557 0.003175
v 0.001320 0.000762 0.006350
v 0.001320 0.000762 0.003175
v 0.001524 -0.000000 0.006350
v 0.001524 -0.000000 0.003175
v 0.001320 -0.000762 0.006350
v 0.001320 -0.000762 0.003175
v 0.000762 -0.001320 0.006350
v 0.000762 -0.001320 0.003175
v 0.000000 -0.001524 0.003175
v 0.000762 0.001320 0.003175
v 0.000762 0.001320 0.006350
v 0.000000 0.001524 0.003175
v 0.000000 0.001524 0.006350
v -0.000762 0.001320 0.003175
v -0.000762 0.001320 0.006350
v -0.001320 0.000762 0.006350
v -0.001320 0.000762 0.003175
v -0.001524 -0.000000 0.006350
v -0.001524 -0.000000 0.003175
v -0.001320 -0.000762 0.006350
v -0.001320 -0.000762 0.003175
v -0.000762 -0.001320 0.006350
v -0.000762 -0.001320 0.003175
v 0.000000 -0.001524 0.006350
v -0.000789 0.008855 0.003175
v -0.000789 0.008855 0.006350
v 0.003273 0.008265 0.003175
v 0.003273 0.008265 0.006350
v 0.006637 0.005915 0.003175
v 0.006637 0.005915 0.006350
v 0.008586 0.002303 0.003175
v 0.008586 0.002303 0.006350
v 0.008706 -0.001799 0.003175
v 0.008706 -0.001799 0.006350
v 0.005015 -0.003556 0.003175
v -0.021588 -0.003556 0.003175
v -0.020545 -0.000603 0.003175
v -0.020986 -0.001045 0.003175
v -0.021590 -0.001206 0.003175
v -0.023131 -0.003205 0.003175
v -0.024369 -0.002218 0.003175
v -0.022193 -0.001045 0.003175
v -0.025056 -0.000792 0.003175
v -0.022635 -0.000603 0.003175
v -0.022796 -0.000000 0.003175
v -0.020383 -0.000000 0.003175
v -0.020545 0.000603 0.003175
v -0.020986 0.001045 0.003175
v -0.021590 0.003556 0.003175
v -0.021590 0.001206 0.003175
v -0.023133 0.003204 0.003175
v -0.024370 0.002217 0.003175
v -0.022193 0.001045 0.003175
v -0.025057 0.000790 0.003175
v -0.022635 0.000603 0.003175
vn 0.9932 0.1164 0.0000
vn 0.9661 0.2581 -0.0000
vn 0.9177 0.3973 0.0000
vn 0.7665 0.6422 -0.0000
vn 0.6638 0.7479 0.0000
vn 0.4233 0.9060 0.0000
vn 0.2856 0.9584 0.0000
vn 0.0008 1.0000 0.0000
vn -0.1462 0.9893 0.0000
vn -0.2870 0.9579 0.0000
vn -0.0000 0.0000 -1.0000
vn 0.3046 -0.9525 0.0000
vn 0.2934 -0.9560 -0.0000
vn 0.7307 -0.6827 0.0000
vn 0.6136 -0.7897 0.0000
vn 0.4773 -0.8788 0.0000
vn 0.1791 -0.9838 0.0000
vn 0.0171 -0.9999 0.0000
vn -0.2959 -0.9552 0.0000
vn -0.4470 -0.8945 0.0000
vn -0.7039 -0.7103 -0.0000
vn -0.8099 -0.5866 -0.0000
vn -0.9525 -0.3045 -0.0000
vn -0.9893 -0.1459 -0.0000
vn -0.9854 0.1703 0.0000
vn -0.9447 0.3279 0.0000
vn -0.8810 0.4731 0.0000
vn -0.9231 -0.3847 0.0000
vn -0.8181 -0.5750 -0.0000
vn -0.9071 -0.4210 -0.0000
vn -0.9960 -0.0889 0.0000
vn -0.9960 0.0889 -0.0001
vn -0.9071 0.4210 -0.0000
vn -0.8181 0.5750 -0.0000
vn -0.5000 0.8660 -0.0000
vn -0.0890 0.9960 0.0000
vn -0.5750 -0.8181 0.0000
vn -0.4210 -0.9071 0.0000
vn -0.0889 -0.9960 0.0000
vn 0.0889 -0.9960 0.0000
vn 0.5000 -0.8660 0.0000
vn 0.8181 -0.5750 0.0000
vn 0.9071 -0.4210 0.0000
vn 0.9960 -0.0889 -0.0000
vn 0.9960 0.0890 0.0000
vn 0.9071 0.4210 -0.0000
vn 0.8181 0.5751 -0.0000
vn 0.5750 0.8181 -0.0000
vn 0.4210 0.9071 -0.0000
vn 0.0889 0.9960 -0.0000
vn -0.3162 0.9487 0.0000
vn -0.1670 0.9860 0.0000
vn -0.0099 1.0000 0.0000
vn 0.2937 0.9559 0.0000
vn 0.4403 0.8978 0.0000
vn 0.6918 0.7221 0.0000
vn 0.7967 0.6044 0.0000
vn 0.9424 0.3344 0.0000
vn 0.9833 0.1821 0.0000
vn 0.9996 0.0291 0.0000
vn -0.0315 -0.9995 0.0000
vn 0.0000 0.0000 1.0000
vn -0.9960 0.0889 -0.0000
vn 0.4210 -0.9071 -0.0000
vn 0.5750 -0.8181 -0.0000
vn -0.4210 0.9071 0.0000
vn -0.5750 0.8181 0.0000
vn -0.8181 0.5751 0.0000
vn -0.9960 0.0890 -0.0000
vn -0.9960 -0.0890 -0.0000
vn -0.8181 -0.5751 0.0000
vn -0.5751 -0.8181 0.0000
vn -0.0890 -0.9960 -0.0000
vn 0.0890 -0.9960 -0.0000
vn 0.4210 -0.9071 0.0001
vn 0.5751 -0.8181 -0.0000
vn 0.8181 -0.5751 -0.0000
vn 0.9960 -0.0890 -0.0000
vn 0.5751 0.8181 -0.0000
vn 0.0890 0.9960 0.0000
vn -0.5751 0.8181 0.0000
vn 0.0000 1.0000 0.0000
vn -0.2226 0.9749 0.0000
vn -0.4340 0.9009 0.0000
vn -0.7324 0.6809 0.0000
vn -0.8270 0.5622 0.0000
vn -0.9553 0.2956 0.0000
vn -0.9890 0.1477 0.0000
vn -0.9890 -0.1482 -0.0000
vn -0.9551 -0.2961 -0.0000
vn -0.8267 -0.5627 -0.0000
vn -0.7320 -0.6813 -0.0000
vn -0.4335 -0.9012 -0.0000
vn -0.2220 -0.9750 -0.0000
vn 0.0000 -1.0000 -0.0000
usemtl Default_OBJ.002
s 1
f 1//1 2//1 3//2
f 3//2 2//1 4//3
f 3//2 4//3 5//4
f 5//4 4//3 6//5
f 5//4 6//5 7//6
f 7//6 6//5 8//7
f 7//6 8//7 9//8
f 9//8 8//7 10//9
f 9//8 10//9 11//10
f 11//10 10//9 12//10
f 13//11 2//11 14//11
f 14//11 2//11 15//11
f 14//11 15//11 16//11
f 16//11 15//11 17//11
f 17//11 15//11 18//11
f 17//11 18//11 19//11
f 19//11 18//11 20//11
f 19//11 20//11 21//11
f 21//11 20//11 22//11
f 22//11 20//11 23//11
f 22//11 23//11 24//11
f 2//11 13//11 4//11
f 4//11 13//11 25//11
f 4//11 25//11 26//11
f 4//11 26//11 27//11
f 27//11 26//11 28//11
f 27//11 28//11 29//11
f 27//11 29//11 30//11
f 30//11 29//11 31//11
f 30//11 31//11 32//11
f 32//11 31//11 24//11
f 24//11 31//11 22//11
f 30//11 33//11 27//11
f 27//11 33//11 34//11
f 34//11 33//11 35//11
f 34//11 35//11 36//11
f 36//11 35//11 37//11
f 37//11 35//11 38//11
f 37//11 38//11 39//11
f 39//11 38//11 40//11
f 39//11 40//11 41//11
f 39//11 41//11 42//11
f 42//11 41//11 43//11
f 42//11 43//11 44//11
f 42//11 44//11 45//11
f 45//11 44//11 46//11
f 45//11 46//11 47//11
f 47//11 46//11 20//11
f 20//11 46//11 23//11
f 10//11 8//11 12//11
f 12//11 8//11 6//11
f 12//11 6//11 27//11
f 27//11 6//11 4//11
f 1//12 48//12 2//12
f 2//12 48//12 15//13
f 49//14 50//14 51//15
f 51//15 50//14 52//16
f 51//15 52//16 53//17
f 53//17 52//16 54//18
f 53//17 54//18 55//19
f 55//19 54//18 56//20
f 55//19 56//20 57//21
f 57//21 56//20 58//22
f 57//21 58//22 59//23
f 59//23 58//22 60//24
f 59//23 60//24 61//25
f 61//25 60//24 62//26
f 61//25 62//26 63//27
f 63//27 62//26 64//27
f 63//28 64//28 65//28
f 65//28 64//28 66//28
f 65//28 66//28 67//28
f 68//29 69//30 70//31
f 70//31 69//30 71//32
f 70//31 71//32 72//33
f 72//33 71//32 73//34
f 72//33 73//34 74//35
f 74//35 73//34 75//35
f 74//35 75//35 76//36
f 69//30 68//29 77//37
f 77//37 68//29 78//38
f 77//37 78//38 79//39
f 79//39 78//38 80//40
f 79//39 80//40 81//41
f 81//41 80//40 82//41
f 81//41 82//41 83//42
f 81//41 83//42 84//43
f 84//43 83//42 85//44
f 84//43 85//44 86//45
f 86//45 85//44 87//46
f 86//45 87//46 88//47
f 88//47 87//46 89//48
f 88//47 89//48 90//49
f 90//49 89//48 91//50
f 90//49 91//50 76//36
f 76//36 91//50 74//35
f 67//51 66//51 92//52
f 92//52 66//51 93//53
f 92//52 93//53 94//54
f 94//54 93//53 95//55
f 94//54 95//55 96//56
f 96//56 95//55 97//57
f 96//56 97//57 98//58
f 98//58 97//57 99//59
f 98//58 99//59 100//60
f 100//60 99//59 101//60
f 101//61 50//61 100//61
f 100//61 50//61 49//61
f 72//62 50//62 70//62
f 70//62 50//62 99//62
f 70//62 99//62 68//62
f 68//62 99//62 97//62
f 68//62 97//62 78//62
f 78//62 97//62 95//62
f 78//62 95//62 80//62
f 80//62 95//62 93//62
f 80//62 93//62 64//62
f 64//62 93//62 66//62
f 72//62 74//62 50//62
f 50//62 74//62 52//62
f 52//62 74//62 54//62
f 54//62 74//62 91//62
f 54//62 91//62 56//62
f 56//62 91//62 89//62
f 56//62 89//62 58//62
f 58//62 89//62 87//62
f 58//62 87//62 60//62
f 60//62 87//62 85//62
f 60//62 85//62 62//62
f 62//62 85//62 83//62
f 62//62 83//62 64//62
f 64//62 83//62 82//62
f 64//62 82//62 80//62
f 101//62 99//62 50//62
f 3//62 98//62 1//62
f 1//62 98//62 100//62
f 1//62 100//62 48//62
f 48//62 100//62 49//62
f 48//62 49//62 102//62
f 102//62 49//62 51//62
f 102//62 51//62 53//62
f 98//62 3//62 96//62
f 96//62 3//62 5//62
f 96//62 5//62 94//62
f 94//62 5//62 7//62
f 94//62 7//62 92//62
f 92//62 7//62 9//62
f 92//62 9//62 11//62
f 11//62 67//62 92//62
f 102//62 53//62 103//62
f 103//62 53//62 55//62
f 103//62 55//62 57//62
f 59//62 104//62 57//62
f 57//62 104//62 105//62
f 57//62 105//62 103//62
f 103//62 105//62 106//62
f 103//62 106//62 107//62
f 107//62 106//62 108//62
f 108//62 106//62 109//62
f 108//62 109//62 110//62
f 110//62 109//62 111//62
f 110//62 111//62 112//62
f 104//62 59//62 113//62
f 113//62 59//62 61//62
f 113//62 61//62 114//62
f 114//62 61//62 63//62
f 114//62 63//62 65//62
f 114//62 65//62 115//62
f 115//62 65//62 116//62
f 115//62 116//62 117//62
f 117//62 116//62 118//62
f 117//62 118//62 119//62
f 117//62 119//62 120//62
f 120//62 119//62 121//62
f 120//62 121//62 122//62
f 122//62 121//62 112//62
f 112//62 121//62 110//62
f 16//34 73//33 14//63
f 14//63 73//33 71//31
f 14//63 71//31 13//30
f 13//30 71//31 69//29
f 13//30 69//29 25//37
f 25//37 69//29 77//38
f 25//37 77//38 26//39
f 26//39 77//38 79//40
f 26//39 79//40 28//64
f 28//64 79//40 81//65
f 28//64 81//65 29//42
f 29//42 81//65 84//43
f 29//42 84//43 31//44
f 31//44 84//43 86//45
f 31//44 86//45 22//46
f 22//46 86//45 88//47
f 22//46 88//47 21//48
f 21//48 88//47 90//49
f 21//48 90//49 19//50
f 19//50 90//49 76//36
f 19//50 76//36 17//66
f 17//66 76//36 75//67
f 17//66 75//67 16//34
f 16//34 75//67 73//33
f 24//68 104//33 32//69
f 32//69 104//33 113//70
f 32//69 113//70 30//30
f 30//30 113//70 114//71
f 30//30 114//71 33//72
f 33//72 114//71 115//38
f 33//72 115//38 35//73
f 35//73 115//38 117//74
f 35//73 117//74 38//75
f 38//75 117//74 120//76
f 38//75 120//76 40//77
f 40//77 120//76 122//43
f 40//77 122//43 41//78
f 41//78 122//43 112//45
f 41//78 112//45 43//46
f 43//46 112//45 111//47
f 43//46 111//47 44//79
f 44//79 111//47 109//49
f 44//79 109//49 46//80
f 46//80 109//49 106//36
f 46//80 106//36 23//66
f 23//66 106//36 105//81
f 23//66 105//81 24//68
f 24//68 105//81 104//33
f 11//28 12//28 67//28
f 67//28 12//28 27//28
f 67//28 27//28 65//28
f 27//82 34//82 65//82
f 65//82 34//82 116//82
f 116//83 34//83 118//84
f 118//84 34//83 36//84
f 118//84 36//84 37//85
f 118//84 37//85 119//86
f 119//86 37//85 39//87
f 119//86 39//87 121//88
f 121//88 39//87 42//89
f 121//88 42//89 110//90
f 110//90 42//89 45//91
f 110//90 45//91 108//92
f 108//92 45//91 47//93
f 108//92 47//93 107//93
f 107//93 47//93 103//94
f 103//94 47//93 20//94
f 20//95 18//95 103//95
f 103//95 18//95 102//95
f 18//13 15//13 102//13
f 102//13 15//13 48//12
