# Blender v2.93.2 OBJ File: ''
# www.blender.org
mtllib left_finger.mtl
o left_finger
v 0.005721 0.020988 0.003429
v 0.006544 0.005548 0.003429
v 0.005721 0.020988 -0.003175
v 0.006544 0.005548 -0.003175
v 0.009782 0.025268 -0.003175
v 0.009782 0.025268 0.003429
v 0.008176 0.024938 -0.003175
v 0.008176 0.024938 0.003429
v 0.006831 0.024001 -0.003175
v 0.006831 0.024001 0.003429
v 0.005965 0.022609 -0.003175
v 0.005965 0.022609 0.003429
v 0.014262 0.025268 0.003429
v 0.014262 0.025268 -0.003175
v 0.014262 0.021930 -0.003175
v 0.010659 0.020696 -0.003175
v 0.010287 0.020324 -0.003175
v 0.009779 0.020188 -0.003175
v 0.010795 0.021204 -0.003175
v 0.010659 0.021712 -0.003175
v 0.010287 0.022084 -0.003175
v 0.009779 0.022220 -0.003175
v 0.009271 0.022084 -0.003175
v 0.008899 0.021712 -0.003175
v 0.008763 0.021204 -0.003175
v 0.008899 0.020696 -0.003175
v 0.009271 0.020324 -0.003175
v 0.010659 0.021712 0.003429
v 0.010795 0.021204 0.003429
v 0.014262 0.021930 0.003429
v 0.010659 0.020696 0.003429
v 0.010287 0.020324 0.003429
v 0.009779 0.020188 0.003429
v 0.009271 0.020324 0.003429
v 0.008899 0.020696 0.003429
v 0.008763 0.021204 0.003429
v 0.010287 0.022084 0.003429
v 0.009779 0.022220 0.003429
v 0.009271 0.022084 0.003429
v 0.008899 0.021712 0.003429
v 0.014262 0.021930 -0.006223
v 0.003250 -0.001443 -0.006223
v 0.005844 0.004062 -0.003175
v 0.003250 -0.001443 -0.003175
v 0.005844 0.004062 0.003429
v 0.003250 -0.001443 0.006477
v 0.014262 0.021930 0.006477
v 0.003250 -0.001443 0.003429
v 0.010659 0.021712 0.006477
v 0.010795 0.021204 0.006477
v 0.010659 0.020696 0.006477
v 0.010287 0.020324 0.006477
v 0.009779 0.020188 0.006477
v 0.009271 0.020324 0.006477
v 0.008899 0.020696 0.006477
v 0.008763 0.021204 0.006477
v 0.008899 0.021712 0.006477
v 0.009271 0.022084 0.006477
v 0.009779 0.022220 0.006477
v 0.010287 0.022084 0.006477
v 0.000981 0.000263 -0.003175
v 0.000981 -0.000263 -0.003175
v 0.000718 -0.000718 -0.003175
v -0.002297 0.004062 -0.003175
v 0.000263 0.000981 -0.003175
v 0.000718 0.000718 -0.003175
v -0.000263 0.000981 -0.003175
v -0.003232 0.001483 -0.003175
v -0.000718 0.000718 -0.003175
v -0.000981 0.000263 -0.003175
v -0.003555 -0.000073 -0.003175
v -0.000981 -0.000263 -0.003175
v -0.003169 -0.001614 -0.003175
v -0.000718 -0.000718 -0.003175
v -0.002150 -0.002832 -0.003175
v -0.000263 -0.000981 -0.003175
v -0.000702 -0.003486 -0.003175
v 0.000263 -0.000981 -0.003175
v 0.000886 -0.003444 -0.003175
v 0.002297 -0.002714 -0.003175
v -0.002297 0.004062 0.003429
v 0.000880 0.000508 0.003429
v 0.000508 0.000880 0.003429
v -0.000000 0.001016 0.003429
v -0.000508 0.000880 0.003429
v 0.002297 -0.002714 0.003429
v 0.000508 -0.000880 0.003429
v 0.000880 -0.000508 0.003429
v 0.001016 0.000000 0.003429
v 0.000886 -0.003444 0.003429
v -0.000000 -0.001016 0.003429
v -0.000702 -0.003486 0.003429
v -0.002150 -0.002832 0.003429
v -0.000508 -0.000880 0.003429
v -0.003169 -0.001614 0.003429
v -0.000880 -0.000508 0.003429
v -0.003555 -0.000073 0.003429
v -0.001016 0.000000 0.003429
v -0.000880 0.000508 0.003429
v -0.003232 0.001483 0.003429
v -0.003232 0.001483 -0.006223
v 0.005747 0.026241 -0.006223
v 0.005747 0.026241 0.006477
v -0.003232 0.001483 0.006477
v 0.002297 -0.002714 -0.006223
v 0.000886 -0.003444 -0.006223
v -0.000702 -0.003486 -0.006223
v -0.002150 -0.002832 -0.006223
v -0.003169 -0.001614 -0.006223
v -0.003555 -0.000073 -0.006223
v 0.000880 0.000508 0.006477
v 0.001016 0.000000 0.006477
v 0.000880 -0.000508 0.006477
v 0.000508 -0.000880 0.006477
v -0.000000 -0.001016 0.006477
v -0.000508 -0.000880 0.006477
v -0.000880 -0.000508 0.006477
v -0.001016 0.000000 0.006477
v -0.000880 0.000508 0.006477
v -0.000508 0.000880 0.006477
v -0.000000 0.001016 0.006477
v 0.000508 0.000880 0.006477
v 0.014262 0.052791 -0.006223
v 0.014262 0.052791 0.006477
v 0.013373 0.053680 -0.006223
v 0.013373 0.053680 0.006477
v 0.004991 0.053680 -0.006223
v 0.004991 0.053680 0.006477
v 0.004102 0.052791 -0.006223
v 0.004102 0.052791 0.006477
v 0.004102 0.052488 -0.006223
v 0.004102 0.052488 0.006477
v 0.004832 0.051614 -0.006223
v 0.004832 0.051614 0.006477
v -0.000880 0.000508 -0.006223
v -0.000508 0.000880 -0.006223
v -0.000000 0.001016 -0.006223
v 0.000508 0.000880 -0.006223
v 0.000880 0.000508 -0.006223
v 0.001016 0.000000 -0.006223
v 0.000880 -0.000508 -0.006223
v 0.000508 -0.000880 -0.006223
v -0.000000 -0.001016 -0.006223
v -0.000508 -0.000880 -0.006223
v -0.000880 -0.000508 -0.006223
v -0.001016 0.000000 -0.006223
v 0.010795 0.021204 -0.006223
v 0.010659 0.020696 -0.006223
v 0.010287 0.020324 -0.006223
v 0.009779 0.020188 -0.006223
v 0.009271 0.020324 -0.006223
v 0.008899 0.020696 -0.006223
v 0.008763 0.021204 -0.006223
v 0.008899 0.021712 -0.006223
v 0.009271 0.022084 -0.006223
v 0.009779 0.022220 -0.006223
v 0.010287 0.022084 -0.006223
v 0.010659 0.021712 -0.006223
v 0.002968 0.028201 -0.006223
v 0.003489 0.027215 -0.006223
v 0.002968 0.028201 0.006477
v 0.003489 0.027215 0.006477
v -0.003555 -0.000073 0.006477
v -0.003169 -0.001614 0.006477
v -0.002150 -0.002832 0.006477
v -0.000702 -0.003486 0.006477
v 0.000886 -0.003444 0.006477
v 0.002297 -0.002714 0.006477
v 0.005825 0.051223 0.006477
v 0.005825 0.051223 -0.006223
v 0.006595 0.050484 0.006477
v 0.006595 0.050484 -0.006223
v 0.007026 0.049508 0.006477
v 0.007026 0.049508 -0.006223
v 0.007032 0.049143 -0.006223
v 0.007032 0.049143 0.006477
vn 0.9986 0.0532 0.0000
vn 0.2010 -0.9796 0.0000
vn 0.3306 -0.9438 0.0000
vn 0.4565 -0.8897 0.0000
vn 0.6766 -0.7363 -0.0000
vn 0.7709 -0.6370 0.0000
vn 0.9125 -0.4091 0.0000
vn 0.9598 -0.2806 0.0000
vn 0.9888 -0.1493 0.0000
vn 0.0000 -1.0000 0.0000
vn 0.0000 -0.0000 1.0000
vn 0.0000 0.0000 -1.0000
vn 0.9046 -0.4262 0.0000
vn -0.8181 -0.5751 -0.0000
vn -0.9071 -0.4210 -0.0000
vn -0.9960 -0.0890 -0.0000
vn -0.9960 0.0890 -0.0000
vn -0.9071 0.4210 0.0000
vn -0.8181 0.5751 0.0000
vn -0.5751 0.8181 0.0000
vn -0.4210 0.9071 0.0000
vn -0.0890 0.9960 -0.0000
vn 0.0890 0.9960 -0.0000
vn 0.4210 0.9071 0.0000
vn 0.5751 0.8181 -0.0000
vn 0.8181 0.5751 -0.0000
vn 0.9071 0.4210 -0.0000
vn 0.9960 0.0890 -0.0001
vn 0.9960 -0.0890 -0.0000
vn 0.9071 -0.4210 -0.0000
vn 0.8181 -0.5751 -0.0000
vn 0.5751 -0.8181 -0.0000
vn 0.4210 -0.9071 0.0000
vn 0.0890 -0.9960 -0.0000
vn -0.0890 -0.9960 0.0000
vn -0.4210 -0.9071 -0.0000
vn -0.5751 -0.8181 -0.0000
vn -0.9401 0.3409 0.0000
vn 0.8002 -0.5998 0.0000
vn 0.6460 -0.7633 0.0000
vn 0.3222 -0.9467 0.0000
vn 0.1747 -0.9846 -0.0000
vn -0.1222 -0.9925 0.0000
vn -0.2715 -0.9624 0.0000
vn -0.5422 -0.8402 -0.0000
vn -0.6635 -0.7482 -0.0000
vn -0.8540 -0.5203 0.0000
vn -0.9231 -0.3846 -0.0000
vn -0.9998 -0.0204 0.0000
vn -0.9791 0.2034 0.0000
vn 0.9960 0.0890 0.0000
vn 1.0000 0.0000 0.0000
vn 0.7071 0.7071 0.0000
vn 0.0000 1.0000 0.0000
vn -0.7071 0.7071 0.0000
vn -1.0000 0.0000 0.0000
vn -0.7678 -0.6407 0.0000
vn 0.9659 -0.2588 -0.0039
vn 0.8660 -0.5000 0.0039
vn 0.7071 -0.7071 -0.0039
vn 0.5000 -0.8660 0.0039
vn 0.2588 -0.9659 -0.0039
vn 0.0000 -1.0000 0.0039
vn -0.2588 -0.9659 -0.0039
vn -0.5000 -0.8660 0.0039
vn -0.7071 -0.7071 -0.0039
vn -0.8660 -0.5000 0.0039
vn -0.9659 -0.2588 -0.0039
vn -1.0000 0.0000 0.0039
vn -0.9659 0.2588 -0.0039
vn -0.8660 0.5000 0.0039
vn -0.7071 0.7071 -0.0039
vn -0.5000 0.8660 0.0039
vn -0.2588 0.9659 -0.0039
vn -0.0000 1.0000 0.0039
vn 0.2588 0.9659 -0.0039
vn 0.5000 0.8660 0.0039
vn 0.7071 0.7071 -0.0039
vn 0.8660 0.5000 0.0039
vn 0.9659 0.2588 -0.0039
vn 1.0000 0.0000 0.0039
vn -0.8842 -0.4671 0.0000
vn -0.3959 -0.9183 0.0000
vn -0.3661 -0.9306 0.0000
vn -0.4830 -0.8756 0.0000
vn -0.5936 -0.8047 -0.0000
vn -0.7796 -0.6262 -0.0000
vn -0.8550 -0.5186 -0.0000
vn -0.9147 -0.4041 0.0000
vn -0.9999 -0.0147 0.0000
vn -0.9817 0.1905 0.0000
usemtl Default_OBJ.001
s 1
f 1//1 2//1 3//1
f 3//1 2//1 4//1
f 5//2 6//2 7//3
f 7//3 6//2 8//4
f 7//3 8//4 9//5
f 9//5 8//4 10//6
f 9//5 10//6 11//7
f 11//7 10//6 12//8
f 11//7 12//8 3//9
f 3//9 12//8 1//9
f 13//10 6//10 14//10
f 14//10 6//10 5//10
f 15//11 16//11 4//11
f 4//11 16//11 17//11
f 4//11 17//11 18//11
f 16//11 15//11 19//11
f 19//11 15//11 14//11
f 19//11 14//11 20//11
f 20//11 14//11 5//11
f 20//11 5//11 21//11
f 21//11 5//11 22//11
f 22//11 5//11 23//11
f 23//11 5//11 7//11
f 23//11 7//11 24//11
f 24//11 7//11 25//11
f 25//11 7//11 9//11
f 25//11 9//11 11//11
f 11//11 3//11 25//11
f 25//11 3//11 26//11
f 26//11 3//11 4//11
f 26//11 4//11 27//11
f 27//11 4//11 18//11
f 28//12 13//12 29//12
f 29//12 13//12 30//12
f 29//12 30//12 31//12
f 31//12 30//12 2//12
f 31//12 2//12 32//12
f 32//12 2//12 33//12
f 33//12 2//12 34//12
f 34//12 2//12 35//12
f 35//12 2//12 1//12
f 35//12 1//12 36//12
f 36//12 1//12 12//12
f 36//12 12//12 10//12
f 13//12 28//12 6//12
f 6//12 28//12 37//12
f 6//12 37//12 38//12
f 38//12 39//12 6//12
f 6//12 39//12 8//12
f 8//12 39//12 40//12
f 8//12 40//12 36//12
f 10//12 8//12 36//12
f 15//13 4//13 41//13
f 41//13 4//13 42//13
f 42//13 4//13 43//13
f 42//13 43//13 44//13
f 43//13 4//13 45//13
f 45//13 4//13 2//13
f 45//13 2//13 46//13
f 46//13 2//13 47//13
f 47//13 2//13 30//13
f 46//13 48//13 45//13
f 49//14 28//15 50//16
f 50//16 28//15 29//17
f 50//16 29//17 51//18
f 51//18 29//17 31//19
f 51//18 31//19 52//20
f 52//20 31//19 32//21
f 52//20 32//21 53//22
f 53//22 32//21 33//23
f 53//22 33//23 54//24
f 54//24 33//23 34//25
f 54//24 34//25 55//26
f 55//26 34//25 35//27
f 55//26 35//27 56//28
f 56//28 35//27 36//29
f 56//28 36//29 57//30
f 57//30 36//29 40//31
f 57//30 40//31 58//32
f 58//32 40//31 39//33
f 58//32 39//33 59//34
f 59//34 39//33 38//35
f 59//34 38//35 60//36
f 60//36 38//35 37//37
f 60//36 37//37 49//14
f 49//14 37//37 28//15
f 43//11 61//11 44//11
f 44//11 61//11 62//11
f 44//11 62//11 63//11
f 64//11 65//11 43//11
f 43//11 65//11 66//11
f 43//11 66//11 61//11
f 65//11 64//11 67//11
f 67//11 64//11 68//11
f 67//11 68//11 69//11
f 69//11 68//11 70//11
f 70//11 68//11 71//11
f 70//11 71//11 72//11
f 72//11 71//11 73//11
f 72//11 73//11 74//11
f 74//11 73//11 75//11
f 74//11 75//11 76//11
f 76//11 75//11 77//11
f 76//11 77//11 78//11
f 78//11 77//11 79//11
f 78//11 79//11 80//11
f 78//11 80//11 63//11
f 63//11 80//11 44//11
f 45//10 81//10 43//10
f 43//10 81//10 64//10
f 48//12 82//12 45//12
f 45//12 82//12 83//12
f 45//12 83//12 81//12
f 81//12 83//12 84//12
f 81//12 84//12 85//12
f 86//12 87//12 48//12
f 48//12 87//12 88//12
f 48//12 88//12 89//12
f 86//12 90//12 87//12
f 87//12 90//12 91//12
f 91//12 90//12 92//12
f 91//12 92//12 93//12
f 91//12 93//12 94//12
f 94//12 93//12 95//12
f 94//12 95//12 96//12
f 96//12 95//12 97//12
f 96//12 97//12 98//12
f 98//12 97//12 99//12
f 99//12 97//12 100//12
f 99//12 100//12 85//12
f 85//12 100//12 81//12
f 89//12 82//12 48//12
f 68//38 64//38 101//38
f 101//38 64//38 102//38
f 102//38 64//38 81//38
f 102//38 81//38 103//38
f 103//38 81//38 104//38
f 104//38 81//38 100//38
f 42//39 44//39 105//40
f 105//40 44//39 80//40
f 105//40 80//40 79//41
f 105//40 79//41 106//42
f 106//42 79//41 77//43
f 106//42 77//43 107//44
f 107//44 77//43 75//45
f 107//44 75//45 108//46
f 108//46 75//45 73//47
f 108//46 73//47 109//48
f 109//48 73//47 71//49
f 109//48 71//49 110//49
f 110//49 71//49 101//50
f 101//50 71//49 68//50
f 111//15 89//16 112//17
f 112//17 89//16 88//18
f 112//17 88//18 113//19
f 113//19 88//18 87//20
f 113//19 87//20 114//21
f 114//21 87//20 91//22
f 114//21 91//22 115//23
f 115//23 91//22 94//24
f 115//23 94//24 116//25
f 116//25 94//24 96//26
f 116//25 96//26 117//27
f 117//27 96//26 98//51
f 117//27 98//51 118//29
f 118//29 98//51 99//30
f 118//29 99//30 119//31
f 119//31 99//30 85//32
f 119//31 85//32 120//33
f 120//33 85//32 84//34
f 120//33 84//34 121//35
f 121//35 84//34 83//36
f 121//35 83//36 122//37
f 122//37 83//36 82//14
f 122//37 82//14 111//15
f 111//15 82//14 89//16
f 15//52 41//52 14//52
f 14//52 41//52 123//52
f 14//52 123//52 13//52
f 13//52 123//52 124//52
f 13//52 124//52 47//52
f 47//52 30//52 13//52
f 123//53 125//53 124//53
f 124//53 125//53 126//53
f 125//54 127//54 126//54
f 126//54 127//54 128//54
f 127//55 129//55 128//55
f 128//55 129//55 130//55
f 131//56 132//56 129//56
f 129//56 132//56 130//56
f 131//57 133//57 132//57
f 132//57 133//57 134//57
f 70//58 135//59 69//60
f 69//60 135//59 136//61
f 69//60 136//61 67//62
f 67//62 136//61 137//63
f 67//62 137//63 65//64
f 65//64 137//63 138//65
f 65//64 138//65 66//66
f 66//66 138//65 139//67
f 66//66 139//67 61//68
f 61//68 139//67 140//69
f 61//68 140//69 62//70
f 62//70 140//69 141//71
f 62//70 141//71 63//72
f 63//72 141//71 142//73
f 63//72 142//73 78//74
f 78//74 142//73 143//75
f 78//74 143//75 76//76
f 76//76 143//75 144//77
f 76//76 144//77 74//78
f 74//78 144//77 145//79
f 74//78 145//79 72//80
f 72//80 145//79 146//81
f 72//80 146//81 70//58
f 70//58 146//81 135//59
f 20//15 147//16 19//17
f 19//17 147//16 148//18
f 19//17 148//18 16//19
f 16//19 148//18 149//20
f 16//19 149//20 17//21
f 17//21 149//20 150//22
f 17//21 150//22 18//23
f 18//23 150//22 151//24
f 18//23 151//24 27//25
f 27//25 151//24 152//26
f 27//25 152//26 26//27
f 26//27 152//26 153//51
f 26//27 153//51 25//29
f 25//29 153//51 154//30
f 25//29 154//30 24//31
f 24//31 154//30 155//32
f 24//31 155//32 23//33
f 23//33 155//32 156//34
f 23//33 156//34 22//35
f 22//35 156//34 157//36
f 22//35 157//36 21//37
f 21//37 157//36 158//14
f 21//37 158//14 20//15
f 20//15 158//14 147//16
f 159//82 160//82 161//82
f 161//82 160//82 162//82
f 160//83 102//83 162//83
f 162//83 102//83 103//83
f 104//50 100//50 163//49
f 163//49 100//50 97//49
f 163//49 97//49 95//48
f 163//49 95//48 164//47
f 164//47 95//48 93//46
f 164//47 93//46 165//45
f 165//45 93//46 92//44
f 165//45 92//44 166//43
f 166//43 92//44 90//42
f 166//43 90//42 167//41
f 167//41 90//42 86//40
f 167//41 86//40 168//40
f 168//40 86//40 46//39
f 46//39 86//40 48//39
f 134//84 133//84 169//85
f 169//85 133//84 170//86
f 169//85 170//86 171//87
f 171//87 170//86 172//88
f 171//87 172//88 173//89
f 173//89 172//88 174//89
f 175//90 176//90 174//90
f 174//90 176//90 173//90
f 175//91 159//91 176//91
f 176//91 159//91 161//91
f 49//11 50//11 47//11
f 47//11 50//11 51//11
f 47//11 51//11 52//11
f 47//11 52//11 46//11
f 46//11 52//11 53//11
f 46//11 53//11 54//11
f 54//11 55//11 46//11
f 46//11 55//11 56//11
f 46//11 56//11 103//11
f 103//11 56//11 57//11
f 103//11 57//11 58//11
f 103//11 58//11 176//11
f 176//11 58//11 59//11
f 176//11 59//11 60//11
f 176//11 60//11 126//11
f 126//11 60//11 49//11
f 126//11 49//11 124//11
f 124//11 49//11 47//11
f 113//11 168//11 112//11
f 112//11 168//11 46//11
f 112//11 46//11 111//11
f 111//11 46//11 103//11
f 111//11 103//11 122//11
f 122//11 103//11 121//11
f 121//11 103//11 120//11
f 120//11 103//11 104//11
f 120//11 104//11 119//11
f 119//11 104//11 118//11
f 118//11 104//11 165//11
f 118//11 165//11 117//11
f 117//11 165//11 166//11
f 117//11 166//11 116//11
f 116//11 166//11 115//11
f 115//11 166//11 167//11
f 115//11 167//11 114//11
f 114//11 167//11 113//11
f 113//11 167//11 168//11
f 176//11 161//11 103//11
f 103//11 161//11 162//11
f 163//11 164//11 104//11
f 104//11 164//11 165//11
f 128//11 171//11 126//11
f 126//11 171//11 173//11
f 126//11 173//11 176//11
f 130//11 134//11 128//11
f 128//11 134//11 169//11
f 128//11 169//11 171//11
f 130//11 132//11 134//11
f 175//12 174//12 125//12
f 125//12 174//12 172//12
f 125//12 172//12 127//12
f 127//12 172//12 170//12
f 127//12 170//12 133//12
f 131//12 129//12 133//12
f 133//12 129//12 127//12
f 123//12 158//12 125//12
f 125//12 158//12 157//12
f 125//12 157//12 175//12
f 175//12 157//12 156//12
f 175//12 156//12 155//12
f 123//12 41//12 158//12
f 158//12 41//12 147//12
f 147//12 41//12 148//12
f 148//12 41//12 149//12
f 149//12 41//12 42//12
f 149//12 42//12 150//12
f 150//12 42//12 151//12
f 151//12 42//12 152//12
f 152//12 42//12 153//12
f 153//12 42//12 102//12
f 153//12 102//12 154//12
f 154//12 102//12 155//12
f 155//12 102//12 175//12
f 105//12 140//12 42//12
f 42//12 140//12 139//12
f 42//12 139//12 102//12
f 102//12 139//12 138//12
f 102//12 138//12 137//12
f 140//12 105//12 141//12
f 141//12 105//12 106//12
f 141//12 106//12 142//12
f 142//12 106//12 143//12
f 143//12 106//12 107//12
f 143//12 107//12 144//12
f 144//12 107//12 145//12
f 145//12 107//12 108//12
f 145//12 108//12 146//12
f 146//12 108//12 101//12
f 146//12 101//12 135//12
f 135//12 101//12 136//12
f 136//12 101//12 102//12
f 136//12 102//12 137//12
f 108//12 109//12 101//12
f 101//12 109//12 110//12
f 160//12 159//12 102//12
f 102//12 159//12 175//12
