# Blender v2.93.2 OBJ File: ''
# www.blender.org
mtllib right_hinge.mtl
o right_hinge
v 0.021589 0.003553 -0.003175
v 0.000007 0.003556 -0.003175
v 0.021589 0.003553 0.003175
v 0.000007 0.003556 0.003175
v 0.021589 -0.003559 0.003175
v 0.021589 -0.003559 -0.003175
v 0.023367 -0.003083 0.003175
v 0.023367 -0.003083 -0.003175
v 0.024669 -0.001781 0.003175
v 0.024669 -0.001781 -0.003175
v 0.025146 -0.000003 0.003175
v 0.025146 -0.000003 -0.003175
v 0.024669 0.001775 0.003175
v 0.024669 0.001775 -0.003175
v 0.023367 0.003077 0.003175
v 0.023367 0.003077 -0.003175
v -0.001045 0.000603 -0.003175
v -0.001045 0.000603 0.003175
v -0.001206 0.000000 -0.003175
v -0.001206 0.000000 0.003175
v -0.001045 -0.000603 -0.003175
v -0.001045 -0.000603 0.003175
v -0.000603 -0.001045 -0.003175
v -0.000603 -0.001045 0.003175
v -0.000000 -0.001206 -0.003175
v -0.000000 -0.001206 0.003175
v 0.000603 -0.001045 -0.003175
v 0.000603 -0.001045 0.003175
v 0.001045 -0.000603 -0.003175
v 0.001045 -0.000603 0.003175
v 0.001206 -0.000000 -0.003175
v 0.001206 -0.000000 0.003175
v 0.001045 0.000603 -0.003175
v 0.001045 0.000603 0.003175
v 0.000603 0.001045 -0.003175
v 0.000603 0.001045 0.003175
v 0.000000 0.001206 -0.003175
v 0.000000 0.001206 0.003175
v -0.000603 0.001045 -0.003175
v -0.000603 0.001045 0.003175
v 0.020270 0.000759 -0.003175
v 0.020270 0.000759 0.003175
v 0.020066 -0.000003 -0.003175
v 0.020066 -0.000003 0.003175
v 0.020270 -0.000765 -0.003175
v 0.020270 -0.000765 0.003175
v 0.020828 -0.001323 -0.003175
v 0.020828 -0.001323 0.003175
v 0.021590 -0.001527 -0.003175
v 0.021590 -0.001527 0.003175
v 0.022352 -0.001323 -0.003175
v 0.022352 -0.001323 0.003175
v 0.022909 -0.000765 -0.003175
v 0.022909 -0.000765 0.003175
v 0.023114 -0.000003 -0.003175
v 0.023114 -0.000003 0.003175
v 0.022910 0.000759 -0.003175
v 0.022910 0.000759 0.003175
v 0.022352 0.001317 -0.003175
v 0.022352 0.001317 0.003175
v 0.021590 0.001521 -0.003175
v 0.021590 0.001521 0.003175
v 0.020828 0.001317 -0.003175
v 0.020828 0.001317 0.003175
v -0.000001 -0.003556 -0.003175
v -0.000001 -0.003556 0.003175
v -0.001538 0.003206 0.003175
v -0.001538 0.003206 -0.003175
v -0.002777 0.002221 -0.003175
v -0.002777 0.002221 0.003175
v -0.003466 0.000795 -0.003175
v -0.003466 0.000795 0.003175
v -0.003467 -0.000788 -0.003175
v -0.003467 -0.000788 0.003175
v -0.002782 -0.002215 -0.003175
v -0.002782 -0.002215 0.003175
v -0.001544 -0.003203 -0.003175
v -0.001544 -0.003203 0.003175
vn 0.0001 1.0000 0.0000
vn -0.0002 1.0000 -0.0000
vn 0.2590 -0.9659 -0.0000
vn 0.2587 -0.9660 -0.0000
vn 0.4210 -0.9071 -0.0000
vn 0.5751 -0.8181 -0.0000
vn 0.8181 -0.5750 -0.0000
vn 0.9071 -0.4209 -0.0000
vn 0.9960 -0.0888 0.0000
vn 0.9960 0.0891 -0.0000
vn 0.9070 0.4211 0.0000
vn 0.8180 0.5752 0.0000
vn 0.5749 0.8182 0.0000
vn 0.4208 0.9072 0.0000
vn 0.2587 0.9660 0.0000
vn 0.8181 -0.5751 -0.0000
vn 0.9071 -0.4210 -0.0000
vn 0.9960 -0.0890 -0.0000
vn 0.9960 0.0889 0.0000
vn 0.9071 0.4210 0.0000
vn 0.8181 0.5750 0.0000
vn 0.5751 0.8181 -0.0000
vn 0.4210 0.9071 0.0000
vn 0.0890 0.9960 0.0000
vn -0.0889 0.9960 0.0000
vn -0.4210 0.9071 -0.0000
vn -0.5750 0.8181 0.0000
vn -0.8181 0.5751 -0.0001
vn -0.9071 0.4210 -0.0000
vn -0.9960 0.0890 -0.0000
vn -0.9960 -0.0889 0.0000
vn -0.9071 -0.4210 -0.0000
vn -0.8181 -0.5750 -0.0000
vn -0.5751 -0.8181 0.0000
vn -0.4210 -0.9071 0.0000
vn -0.0890 -0.9960 -0.0000
vn 0.0889 -0.9960 -0.0000
vn 0.5750 -0.8181 -0.0000
vn 0.9960 0.0890 0.0000
vn 0.8181 0.5751 -0.0000
vn -0.0890 0.9960 0.0000
vn -0.5751 0.8181 0.0000
vn -0.8181 0.5751 -0.0000
vn -0.9960 -0.0890 -0.0000
vn -0.9071 -0.4210 0.0001
vn -0.8181 -0.5751 0.0000
vn 0.0890 -0.9960 -0.0000
vn -0.0001 -1.0000 0.0000
vn -0.2208 0.9753 0.0000
vn -0.2212 0.9752 0.0000
vn -0.4324 0.9017 0.0000
vn -0.7314 0.6819 0.0000
vn -0.8262 0.5634 0.0000
vn -0.9549 0.2968 0.0000
vn -0.9889 0.1488 0.0000
vn -0.9891 -0.1471 -0.0000
vn -0.9554 -0.2952 -0.0000
vn -0.8272 -0.5619 -0.0000
vn -0.7326 -0.6807 -0.0000
vn -0.4339 -0.9010 -0.0000
vn -0.2228 -0.9749 -0.0000
vn 0.0000 0.0000 1.0000
vn -0.0000 0.0000 -1.0000
usemtl Default_OBJ.006
s 1
f 1//1 2//1 3//1
f 3//1 2//1 4//2
f 5//3 6//4 7//5
f 7//5 6//4 8//6
f 7//5 8//6 9//7
f 9//7 8//6 10//8
f 9//7 10//8 11//9
f 11//9 10//8 12//10
f 11//9 12//10 13//11
f 13//11 12//10 14//12
f 13//11 14//12 15//13
f 15//13 14//12 16//14
f 15//13 16//14 3//15
f 3//15 16//14 1//15
f 17//16 18//17 19//18
f 19//18 18//17 20//19
f 19//18 20//19 21//20
f 21//20 20//19 22//21
f 21//20 22//21 23//22
f 23//22 22//21 24//23
f 23//22 24//23 25//24
f 25//24 24//23 26//25
f 25//24 26//25 27//26
f 27//26 26//25 28//27
f 27//26 28//27 29//28
f 29//28 28//27 30//29
f 29//28 30//29 31//30
f 31//30 30//29 32//31
f 31//30 32//31 33//32
f 33//32 32//31 34//33
f 33//32 34//33 35//34
f 35//34 34//33 36//35
f 35//34 36//35 37//36
f 37//36 36//35 38//37
f 37//36 38//37 39//5
f 39//5 38//37 40//38
f 39//5 40//38 17//16
f 17//16 40//38 18//17
f 41//16 42//17 43//18
f 43//18 42//17 44//39
f 43//18 44//39 45//20
f 45//20 44//39 46//40
f 45//20 46//40 47//22
f 47//22 46//40 48//23
f 47//22 48//23 49//24
f 49//24 48//23 50//41
f 49//24 50//41 51//26
f 51//26 50//41 52//42
f 51//26 52//42 53//43
f 53//43 52//42 54//29
f 53//43 54//29 55//30
f 55//30 54//29 56//44
f 55//30 56//44 57//45
f 57//45 56//44 58//46
f 57//45 58//46 59//34
f 59//34 58//46 60//35
f 59//34 60//35 61//36
f 61//36 60//35 62//47
f 61//36 62//47 63//5
f 63//5 62//47 64//6
f 63//5 64//6 41//16
f 41//16 64//6 42//17
f 65//48 6//48 66//48
f 66//48 6//48 5//48
f 4//49 2//50 67//51
f 67//51 2//50 68//51
f 67//51 68//51 69//52
f 67//51 69//52 70//53
f 70//53 69//52 71//54
f 70//53 71//54 72//55
f 72//55 71//54 73//56
f 72//55 73//56 74//57
f 74//57 73//56 75//58
f 74//57 75//58 76//59
f 76//59 75//58 77//60
f 76//59 77//60 78//60
f 78//60 77//60 66//61
f 66//61 77//60 65//61
f 42//62 34//62 44//62
f 44//62 34//62 32//62
f 44//62 32//62 30//62
f 34//62 42//62 36//62
f 36//62 42//62 64//62
f 36//62 64//62 4//62
f 4//62 64//62 3//62
f 3//62 64//62 62//62
f 3//62 62//62 15//62
f 15//62 62//62 13//62
f 13//62 62//62 60//62
f 13//62 60//62 58//62
f 13//62 58//62 11//62
f 11//62 58//62 56//62
f 11//62 56//62 54//62
f 11//62 54//62 9//62
f 9//62 54//62 52//62
f 9//62 52//62 50//62
f 48//62 5//62 50//62
f 50//62 5//62 7//62
f 50//62 7//62 9//62
f 46//62 28//62 48//62
f 48//62 28//62 66//62
f 48//62 66//62 5//62
f 28//62 46//62 30//62
f 30//62 46//62 44//62
f 18//62 72//62 20//62
f 20//62 72//62 74//62
f 20//62 74//62 22//62
f 22//62 74//62 24//62
f 24//62 74//62 76//62
f 24//62 76//62 26//62
f 26//62 76//62 78//62
f 26//62 78//62 66//62
f 18//62 40//62 72//62
f 72//62 40//62 70//62
f 70//62 40//62 38//62
f 70//62 38//62 67//62
f 67//62 38//62 4//62
f 4//62 38//62 36//62
f 28//62 26//62 66//62
f 65//63 47//63 6//63
f 6//63 47//63 49//63
f 6//63 49//63 8//63
f 8//63 49//63 10//63
f 10//63 49//63 51//63
f 10//63 51//63 53//63
f 77//63 25//63 65//63
f 65//63 25//63 27//63
f 65//63 27//63 47//63
f 47//63 27//63 45//63
f 45//63 27//63 29//63
f 45//63 29//63 43//63
f 43//63 29//63 31//63
f 43//63 31//63 33//63
f 77//63 75//63 25//63
f 25//63 75//63 23//63
f 23//63 75//63 73//63
f 23//63 73//63 21//63
f 21//63 73//63 19//63
f 19//63 73//63 71//63
f 19//63 71//63 17//63
f 17//63 71//63 39//63
f 39//63 71//63 69//63
f 39//63 69//63 37//63
f 37//63 69//63 68//63
f 37//63 68//63 2//63
f 1//63 63//63 2//63
f 2//63 63//63 35//63
f 2//63 35//63 37//63
f 63//63 1//63 61//63
f 61//63 1//63 16//63
f 61//63 16//63 14//63
f 12//63 57//63 14//63
f 14//63 57//63 59//63
f 14//63 59//63 61//63
f 10//63 53//63 12//63
f 12//63 53//63 55//63
f 12//63 55//63 57//63
f 63//63 41//63 35//63
f 35//63 41//63 33//63
f 33//63 41//63 43//63
